<svg width="64" height="74" viewBox="0 0 64 74" fill="none" xmlns="http://www.w3.org/2000/svg">
<path d="M32 36.5714C36.8497 36.5714 41.5007 34.6449 44.93 31.2157C48.3592 27.7864 50.2857 23.1354 50.2857 18.2857C50.2857 13.436 48.3592 8.785 44.93 5.35576C41.5007 1.92653 36.8497 0 32 0C27.1503 0 22.4993 1.92653 19.07 5.35576C15.6408 8.785 13.7143 13.436 13.7143 18.2857C13.7143 23.1354 15.6408 27.7864 19.07 31.2157C22.4993 34.6449 27.1503 36.5714 32 36.5714ZM25.4714 43.4286C11.4 43.4286 0 54.8286 0 68.9C0 71.2429 1.9 73.1429 4.24286 73.1429H59.7571C62.1 73.1429 64 71.2429 64 68.9C64 54.8286 52.6 43.4286 38.5286 43.4286H25.4714Z" fill="#EBEBEB"/>
</svg>
