<svg width="257" height="315" viewBox="0 0 257 315" fill="none" xmlns="http://www.w3.org/2000/svg">
<path d="M214.099 167.031C214.541 214.61 255.838 230.443 256.295 230.645C255.946 231.761 249.697 253.208 234.538 275.361C221.433 294.514 207.834 313.596 186.409 313.991C165.357 314.379 158.588 301.508 134.52 301.508C110.459 301.508 102.938 313.596 83.0105 314.379C62.3304 315.163 46.5822 293.669 33.3698 274.586C6.37064 235.552 -14.2623 164.286 13.4425 116.18C27.2057 92.2909 51.8014 77.163 78.498 76.7751C98.8053 76.3877 117.972 90.4372 130.387 90.4372C142.794 90.4372 166.086 73.5415 190.573 76.0228C200.824 76.4495 229.599 80.1637 248.076 107.209C246.587 108.132 213.742 127.253 214.099 167.031ZM174.534 50.1987C185.514 36.9088 192.903 18.4081 190.887 0C175.062 0.636059 155.925 10.5458 144.573 23.8284C134.4 35.5907 125.491 54.417 127.895 72.4608C145.535 73.8255 163.555 63.497 174.534 50.1987Z" fill="#EBEBEB"/>
</svg>
