<svg width="256" height="256" viewBox="0 0 256 256" fill="none" xmlns="http://www.w3.org/2000/svg">
<path d="M36.5714 0C16.4 0 0 16.4 0 36.5714V219.429C0 239.6 16.4 256 36.5714 256H219.429C239.6 256 256 239.6 256 219.429V36.5714C256 16.4 239.6 0 219.429 0H36.5714ZM192.571 101.143L119.429 174.286C114.057 179.657 105.371 179.657 100.057 174.286L63.4857 137.714C58.1143 132.343 58.1143 123.657 63.4857 118.343C68.8571 113.029 77.5429 112.971 82.8571 118.343L109.714 145.2L173.143 81.7143C178.514 76.3429 187.2 76.3429 192.514 81.7143C197.829 87.0857 197.886 95.7714 192.514 101.086L192.571 101.143Z" fill="url(#paint0_linear_31_2)"/>
<defs>
<linearGradient id="paint0_linear_31_2" x1="0" y1="0" x2="256" y2="256" gradientUnits="userSpaceOnUse">
<stop stop-color="#EBEBEB"/>
<stop offset="1" stop-color="#ABABAB"/>
</linearGradient>
</defs>
</svg>
