<svg width="257" height="256" viewBox="0 0 257 256" fill="none" xmlns="http://www.w3.org/2000/svg">
<path d="M256.16 130.844C256.16 120.32 255.289 112.64 253.403 104.676H130.773V152.177H202.754C201.303 163.982 193.466 181.76 176.051 193.706L175.807 195.296L214.58 224.733L217.267 224.996C241.938 202.666 256.16 169.813 256.16 130.844Z" fill="#EBEBEB"/>
<path d="M130.773 256C166.037 256 195.642 244.622 217.267 224.996L176.051 193.706C165.022 201.244 150.219 206.506 130.773 206.506C96.2331 206.506 66.9181 184.178 56.4681 153.316L54.9364 153.443L14.6192 184.021L14.0919 185.457C35.5702 227.27 79.6882 256 130.773 256Z" fill="#D6D8DC"/>
<path d="M56.4681 153.316C53.7108 145.351 52.1151 136.817 52.1151 128C52.1151 119.182 53.7108 110.649 56.3231 102.684L56.25 100.988L15.4276 69.9191L14.0919 70.5417C5.23973 87.893 0.160309 107.378 0.160309 128C0.160309 148.622 5.23973 168.106 14.0919 185.457L56.4681 153.316Z" fill="#BDBDBD"/>
<path d="M130.773 49.493C155.298 49.493 171.842 59.8752 181.276 68.5513L218.137 33.28C195.498 12.6578 166.037 0 130.773 0C79.6882 0 35.5702 28.7287 14.0919 70.5417L56.3231 102.684C66.9181 71.8222 96.2331 49.493 130.773 49.493Z" fill="#ABABAB"/>
</svg>
