<svg width="65" height="57" viewBox="0 0 65 57" fill="none" xmlns="http://www.w3.org/2000/svg">
<path d="M63.9943 28.3962C63.9943 30.3968 62.3272 31.9638 60.4379 31.9638H56.8814L56.9592 49.7684C56.9592 50.0685 56.9369 50.3686 56.9036 50.6687V52.4691C56.9036 54.9253 54.9142 56.9147 52.458 56.9147H50.6798C50.5575 56.9147 50.4353 56.9147 50.313 56.9036C50.1574 56.9147 50.0018 56.9147 49.8462 56.9147L46.2342 56.9036H43.5668C41.1106 56.9036 39.1212 54.9142 39.1212 52.458V42.6777C39.1212 40.7105 37.5319 39.1212 35.5647 39.1212H28.4518C26.4846 39.1212 24.8953 40.7105 24.8953 42.6777V52.458C24.8953 54.9142 22.9059 56.9036 20.4497 56.9036H14.237C14.0703 56.9036 13.9036 56.8925 13.7369 56.8814C13.6035 56.8925 13.4701 56.9036 13.3368 56.9036H11.5585C9.10235 56.9036 7.11295 54.9142 7.11295 52.458V40.0104C7.11295 39.9103 7.11295 39.7992 7.12406 39.6992V31.9527H3.56758C1.56707 31.9527 0.0111084 30.3968 0.0111084 28.3851C0.0111084 27.3849 0.344528 26.4957 1.12251 25.7178L29.6077 0.889119C30.3856 0.11114 31.2747 0 32.0527 0C32.8307 0 33.7198 0.22228 34.3867 0.777979L62.7718 25.7289C63.6609 26.5069 64.1055 27.396 63.9943 28.3962Z" fill="#EBEBEB"/>
</svg>
