<svg width="64" height="46" viewBox="0 0 64 46" fill="none" xmlns="http://www.w3.org/2000/svg">
<path d="M0 17.1429C0 7.67143 7.67143 0 17.1429 0H18.2857C20.8143 0 22.8571 2.04286 22.8571 4.57143C22.8571 7.1 20.8143 9.14286 18.2857 9.14286H17.1429C12.7286 9.14286 9.14286 12.7286 9.14286 17.1429V18.2857H18.2857C23.3286 18.2857 27.4286 22.3857 27.4286 27.4286V36.5714C27.4286 41.6143 23.3286 45.7143 18.2857 45.7143H9.14286C4.1 45.7143 0 41.6143 0 36.5714V17.1429ZM36.5714 17.1429C36.5714 7.67143 44.2429 0 53.7143 0H54.8571C57.3857 0 59.4286 2.04286 59.4286 4.57143C59.4286 7.1 57.3857 9.14286 54.8571 9.14286H53.7143C49.3 9.14286 45.7143 12.7286 45.7143 17.1429V18.2857H54.8571C59.9 18.2857 64 22.3857 64 27.4286V36.5714C64 41.6143 59.9 45.7143 54.8571 45.7143H45.7143C40.6714 45.7143 36.5714 41.6143 36.5714 36.5714V17.1429Z" fill="#ABABAB"/>
</svg>
