<svg width="64" height="68" viewBox="0 0 64 68" fill="none" xmlns="http://www.w3.org/2000/svg">
<path d="M63.8226 22.0948C64.247 23.2486 63.8889 24.535 62.9738 25.3573L57.2313 30.5826C57.3772 31.6833 57.4567 32.8106 57.4567 33.9512C57.4567 35.0917 57.3772 36.219 57.2313 37.3198L62.9738 42.545C63.8889 43.3673 64.247 44.6537 63.8226 45.8075C63.239 47.3857 62.5362 48.8976 61.7272 50.3565L61.1038 51.4307C60.2285 52.8895 59.2471 54.2688 58.1729 55.5685C57.3904 56.5234 56.0907 56.8417 54.9237 56.4703L47.5366 54.1229C45.7595 55.4889 43.7967 56.6295 41.7013 57.4915L40.0435 65.0642C39.7783 66.2711 38.8499 67.2259 37.6298 67.4249C35.7996 67.7299 33.9164 67.8891 31.9934 67.8891C30.0704 67.8891 28.1871 67.7299 26.3569 67.4249C25.1368 67.2259 24.2085 66.2711 23.9432 65.0642L22.2855 57.4915C20.19 56.6295 18.2272 55.4889 16.4501 54.1229L9.07633 56.4836C7.90926 56.8549 6.60957 56.5234 5.8271 55.5818C4.75286 54.2821 3.77146 52.9028 2.89616 51.444L2.27284 50.3697C1.46385 48.9109 0.760951 47.399 0.177416 45.8208C-0.246974 44.667 0.111105 43.3806 1.02619 42.5583L6.76871 37.333C6.62283 36.219 6.54326 35.0917 6.54326 33.9512C6.54326 32.8106 6.62283 31.6833 6.76871 30.5826L1.02619 25.3573C0.111105 24.535 -0.246974 23.2486 0.177416 22.0948C0.760951 20.5166 1.46385 19.0047 2.27284 17.5459L2.89616 16.4716C3.77146 15.0128 4.75286 13.6335 5.8271 12.3338C6.60957 11.3789 7.90926 11.0607 9.07633 11.432L16.4634 13.7794C18.2405 12.4134 20.2033 11.2728 22.2987 10.4108L23.9565 2.8381C24.2217 1.63125 25.1501 0.676371 26.3702 0.477438C28.2004 0.159146 30.0836 0 32.0066 0C33.9296 0 35.8129 0.159146 37.6431 0.464176C38.8632 0.663109 39.7915 1.61798 40.0568 2.82484L41.7145 10.3975C43.81 11.2596 45.7728 12.4001 47.5499 13.7661L54.9369 11.4187C56.104 11.0474 57.4037 11.3789 58.1862 12.3206C59.2604 13.6203 60.2418 14.9995 61.1171 16.4584L61.7404 17.5326C62.5494 18.9914 63.2523 20.5033 63.8358 22.0815L63.8226 22.0948ZM32.0066 44.5609C34.8205 44.5609 37.5191 43.4431 39.5088 41.4534C41.4986 39.4637 42.6164 36.765 42.6164 33.9512C42.6164 31.1373 41.4986 28.4387 39.5088 26.4489C37.5191 24.4592 34.8205 23.3414 32.0066 23.3414C29.1928 23.3414 26.4941 24.4592 24.5044 26.4489C22.5147 28.4387 21.3969 31.1373 21.3969 33.9512C21.3969 36.765 22.5147 39.4637 24.5044 41.4534C26.4941 43.4431 29.1928 44.5609 32.0066 44.5609Z" fill="#EBEBEB"/>
</svg>
